<?xml version="1.0" encoding="utf-8"?>
<!-- Generator: Adobe Illustrator 23.0.3, SVG Export Plug-In . SVG Version: 6.00 Build 0)  -->
<svg version="1.1" id="Layer_1" xmlns="http://www.w3.org/2000/svg" xmlns:xlink="http://www.w3.org/1999/xlink" x="0px" y="0px"
	 viewBox="0 0 38 38" style="enable-background:new 0 0 38 38;" xml:space="preserve">
<style type="text/css">
	.st0{fill-rule:evenodd;clip-rule:evenodd;fill:#FFFFFF;}
</style>
<g>
	<path class="st0" d="M25.7,25.4c0,0,0-0.1,0.1-0.1C25.8,25.3,25.8,25.4,25.7,25.4z"/>
	<path class="st0" d="M32.7,30.5c0-0.1,0.1-0.3,0.2-0.1C32.8,30.5,32.8,30.5,32.7,30.5z"/>
	<path class="st0" d="M33.1,30.4c0-0.1,0.1-0.1,0.2-0.2C33.3,30.3,33.1,30.4,33.1,30.4z"/>
	<path class="st0" d="M32.8,28.8c0-0.1,0.1-0.2,0.1-0.2C33,28.7,32.9,28.8,32.8,28.8z"/>
	<path class="st0" d="M34.1,29.4c0-0.1,0.1-0.2,0.2-0.4C34.4,29.1,34.2,29.3,34.1,29.4z"/>
	<path class="st0" d="M29.6,24.5c0.1-0.1,0.2-0.4,0.3-0.4C29.7,24.2,29.7,24.4,29.6,24.5z"/>
	<path class="st0" d="M32.2,25.8c0.1-0.3,0.2-0.5,0.4-0.8C32.7,25.1,32.3,25.8,32.2,25.8z"/>
	<path class="st0" d="M33.8,23.7C33.8,23.7,33.8,23.4,33.8,23.7z"/>
	<path class="st0" d="M33.2,22.3c0.1,0.2,0.1-0.9,0.2-1C33.4,21.7,33.4,22,33.2,22.3z"/>
	<path class="st0" d="M34.7,22.7c0-0.1,0-0.1,0-0.2C34.8,22.5,34.8,22.6,34.7,22.7z"/>
	<path class="st0" d="M31,21.3c-0.1,0,0-0.1,0-0.2C31.1,21.2,31.1,21.3,31,21.3z"/>
	<path class="st0" d="M34.3,22.3c-0.1-0.1,0-0.2,0-0.3C34.4,21.9,34.3,22.2,34.3,22.3z"/>
	<path class="st0" d="M34.8,22.3c-0.1-0.1,0-0.2,0-0.4C34.8,22,34.8,22.2,34.8,22.3z"/>
	<path class="st0" d="M30.4,20.9c-0.1,0-0.1-0.1-0.1-0.2C30.4,20.8,30.3,20.9,30.4,20.9z"/>
	<path class="st0" d="M31.1,21c-0.1-0.1,0-0.3,0.1-0.4C31.2,20.8,31.1,20.9,31.1,21z"/>
	<path class="st0" d="M34.8,21.9c-0.1-0.2,0.1-0.4,0.1-0.5C34.9,21.5,34.7,21.7,34.8,21.9z"/>
	<path class="st0" d="M33.5,21.2c0-0.1,0-0.1,0-0.2C33.6,21,33.5,21.1,33.5,21.2z"/>
	<path class="st0" d="M33.8,21c-0.1-0.1,0-0.1,0-0.2C33.9,20.8,33.8,20.9,33.8,21z"/>
	<path class="st0" d="M34.2,20.8C34.1,20.8,34.4,20.5,34.2,20.8z"/>
	<path class="st0" d="M32,20C32.1,20.1,31.9,20.3,32,20L32,20z"/>
	<path class="st0" d="M31,19.6c-0.1-0.1,0-0.2,0-0.3C31,19.4,31,19.6,31,19.6z"/>
	<path class="st0" d="M30.8,19.5c-0.1,0-0.1-0.1,0-0.1L30.8,19.5z"/>
	<path class="st0" d="M29.2,19.2c-0.1,0-0.1-0.1-0.1-0.1C29.2,19.1,29.3,19.2,29.2,19.2z"/>
	<path class="st0" d="M29.4,18.7C29.3,18.6,29.4,18.5,29.4,18.7L29.4,18.7z"/>
	<path class="st0" d="M28.4,22.4C28.3,22.2,28.4,21.9,28.4,22.4z"/>
	<path class="st0" d="M31.6,21.3c0-0.2,0.5-0.4,0.4-0.8C32.3,21,32,21.5,31.6,21.3z"/>
	<path class="st0" d="M34.4,21.8C34.4,21.4,34.4,21.9,34.4,21.8z"/>
	<path class="st0" d="M34.4,19.6c0.3,0.1,0.3-0.1,0.2-0.6c0.2,0.7-0.2,1.9-0.2,2.5c0,0,0-1,0-1C34.4,20.3,34.6,19.9,34.4,19.6z"/>
	<path class="st0" d="M30.6,19.5c-0.1,0-0.1-0.1-0.1-0.1C30.5,19.3,30.6,19.4,30.6,19.5z"/>
	<path class="st0" d="M20.1,14.5c0.8,0.1,1.1-0.6,1.7-1c1.1-0.6,2.5-1.1,3.6-1.8c3.5-2.1,3.1-5.9-0.2-8c-5.5-3.5-12.8,0.2-17,4.4
		c-5.6,5.6-5.5,14.5-0.9,20.7c5,6.6,16.7,9,22.9,3.4c0.8-0.5,1.8-2.2,1.8-2.3c0.8-0.5,2-2.9,2.2-3.6c-0.1-1,0.7-2.5,0.6-3.8
		c0,1.7-1.1,2.3-1.5,3.6c-1.1-0.2,0.9-1.8,0.5-2.3c-0.3,1-1.3,2-1.8,2.9c-0.2,0,1.1-3.4,1.3-4.2c-0.6,0.7-2,4.7-3.6,3.9
		c-0.1-0.5,1.6-2.3,0.8-2.4c-0.1,0.3-0.3,0.5-0.6,0.7c-0.5-0.2,1.2-4.3,1.1-5.1c-0.2,0.8-0.4,3.8-1.5,4.1c-0.1-0.2-0.2-0.5-0.3-0.7
		c-0.1,0.2-0.6,0.6-0.7,0.8c-3.2,3.6-10,3.9-13.5,0.1c-1.8-1.9-2.4-4.7-1.2-7.1c0.5-1,1.3-1.9,2.4-2.4c0.4-0.2,3.2-0.7,2.9-0.4
		c0-0.2,0.1-0.4,0.3-0.5C19.5,13.8,19.8,14.5,20.1,14.5z M33,27.1C33,27.1,33,27.1,33,27.1C33.1,27.3,32.9,27.3,33,27.1z M33,27
		c0.7-1,0.2-0.4,0.6-1.1C33.9,26.1,33.5,27.5,33,27z"/>
</g>
</svg>
